<svg width="120" height="80" viewBox="0 0 120 80" fill="none" xmlns="http://www.w3.org/2000/svg">
  <!-- Heart shape -->
  <path d="M85 25C85 15 92 8 102 8C112 8 119 15 119 25C119 35 102 52 102 52S85 35 85 25Z" fill="#F87171" opacity="0.8"/>
  <path d="M68 25C68 15 75 8 85 8C95 8 102 15 102 25C102 35 85 52 85 52S68 35 68 25Z" fill="#F87171" opacity="0.6"/>
  
  <!-- Curved "L" shape -->
  <path d="M15 15C15 15 15 45 15 55C15 65 25 75 35 75C45 75 55 75 55 75" stroke="#6B7280" stroke-width="8" stroke-linecap="round" fill="none"/>
  
  <!-- Text -->
  <text x="15" y="35" font-family="Arial, sans-serif" font-size="8" font-weight="bold" fill="#374151">LIVING</text>
  <text x="15" y="45" font-family="Arial, sans-serif" font-size="8" font-weight="bold" fill="#374151">ONCOLOGY</text>
</svg>
